<svg xmlns="http://www.w3.org/2000/svg" xmlns:xlink="http://www.w3.org/1999/xlink" width="256" zoomAndPan="magnify" viewBox="0 0 192 191.999996" height="256" preserveAspectRatio="xMidYMid meet" version="1.0"><path fill="#35393d" d="M 99.535156 62.417969 L 107.988281 79.542969 C 108.5625 80.707031 109.675781 81.515625 110.960938 81.703125 L 129.855469 84.449219 C 133.097656 84.917969 134.390625 88.902344 132.046875 91.1875 L 118.371094 104.511719 C 117.441406 105.421875 117.015625 106.726562 117.238281 108.007812 L 120.464844 126.828125 C 121.019531 130.054688 117.628906 132.515625 114.730469 130.992188 L 97.832031 122.105469 C 96.679688 121.503906 95.304688 121.503906 94.15625 122.105469 L 77.253906 130.992188 C 74.355469 132.515625 70.96875 130.054688 71.523438 126.828125 L 74.75 108.007812 C 74.96875 106.726562 74.546875 105.421875 73.613281 104.511719 L 59.941406 91.1875 C 57.597656 88.902344 58.890625 84.917969 62.132812 84.449219 L 81.027344 81.703125 C 82.3125 81.515625 83.425781 80.707031 84 79.542969 L 92.453125 62.417969 C 93.902344 59.484375 98.085938 59.484375 99.535156 62.417969 Z M 99.535156 62.417969 " fill-opacity="1" fill-rule="nonzero"/></svg>